<svg xmlns="http://www.w3.org/2000/svg" viewBox="0 0 120 120" role="img" aria-label="Diseño de sonrisa">
  <title>Diseño de sonrisa</title>
  <g fill="none" stroke="#f3f3f3" stroke-width="1.4" stroke-linecap="round" stroke-linejoin="round">

    <path d="M20 50c10 24 24 36 40 36s30-12 40-36c-12-7-25-10-40-10s-28 3-40 10z"/>
    <path d="M24 58h72" opacity=".5"/>
    <path d="M42 42v16m18-18v18m18-16v16" opacity=".5"/>
    <path d="M20 28v10m40-14v14m40-10v10" opacity=".35"/>
    <path d="M20 32h80" opacity=".35"/>
    <path d="M100 96l3 8 8 3-8 3-3 8-3-8-8-3 8-3z"/>
  </g>
</svg>
