<svg xmlns="http://www.w3.org/2000/svg" viewBox="0 0 120 150" role="img" aria-label="Retrato ilustrado de la coordinadora de pacientes">
  <title>Retrato ilustrado de la coordinadora de pacientes</title>
  <rect width="120" height="150" fill="#151515"/>
  <g fill="none" stroke="#f3f3f3" stroke-width="1.3" stroke-linecap="round" stroke-linejoin="round">

    <path d="M60 33c9 0 15 7 15 17 0 8-2 14-6 18-3 3-6 4-9 4s-6-1-9-4c-4-4-6-10-6-18 0-10 6-17 15-17z"/>
    <path d="M45 48c-2-12 5-19 15-19s17 7 15 19"/>
    <path d="M60 22a6 6 0 1 1 0 12 6 6 0 0 1 0-12z"/>
    <path d="M45 50c-2 4-2 9-1 13m32-13c2 4 2 9 1 13" opacity=".45"/>
    <rect x="46" y="52" width="11" height="9" rx="4"/>
    <rect x="63" y="52" width="11" height="9" rx="4"/>
    <path d="M57 56h6M46 55l-4-1m32 1 4-1" opacity=".7"/>
    <path d="M55 67c3 2.4 8 2.4 11 0" opacity=".75"/>
    <path d="M50 72v4c0 4-3 6-8 8-10 4-16 9-18 18-1 5-1 10-1 16h74c0-6 0-11-1-16-2-9-8-14-18-18-5-2-8-4-8-8v-4"/>
    <path d="M50 77c3 4 6 6 10 6s7-2 10-6" opacity=".6"/>
    <path d="M60 84v33" opacity=".4"/>
    <path d="M66 92h9v6h-9z" opacity=".55"/>
  </g>
</svg>
